<mxfile host="app.diagrams.net" modified="2024-07-01T20:16:40.846Z" agent="Mozilla/5.0 (Windows NT 10.0; Win64; x64) AppleWebKit/537.36 (KHTML, like Gecko) Chrome/124.0.0.0 Safari/537.36 Edg/124.0.0.0" version="24.6.4" etag="H8h4l5K0hiA5z4Gs7nBK" type="github">
  <diagram name="Page-1" id="7uZ24tVlsC-XGDb4ShXH">
    <mxGraphModel>
      <root>
        <mxCell id="0" />
        <mxCell id="1" parent="0" />
      </root>
    </mxGraphModel>
  </diagram>
</mxfile>
